<svg xmlns="http://www.w3.org/2000/svg" width="48.991" height="48.991" viewBox="0 0 48.991 48.991">
  <g id="Group_1390" data-name="Group 1390" transform="translate(-145.844 -3119.331)">
    <path id="Path_242" data-name="Path 242" d="M354.725,61.524h-6.1a4.822,4.822,0,0,1-4.817-4.817v-6.1a4.822,4.822,0,0,1,4.817-4.817h6.1a4.822,4.822,0,0,1,4.817,4.817v6.1a4.822,4.822,0,0,1-4.817,4.817m-6.1-14.554a3.643,3.643,0,0,0-3.638,3.638v6.1a3.643,3.643,0,0,0,3.638,3.639h6.1a3.643,3.643,0,0,0,3.639-3.639v-6.1a3.643,3.643,0,0,0-3.639-3.638Z" transform="translate(-181.588 3090.001)" fill="#fff"/>
    <path id="Path_243" data-name="Path 243" d="M358.722,64.685a3.98,3.98,0,1,1,3.98-3.98,3.984,3.984,0,0,1-3.98,3.98m0-6.753a2.773,2.773,0,1,0,2.773,2.773,2.777,2.777,0,0,0-2.773-2.773" transform="translate(-188.635 3082.954)" fill="#fff"/>
    <path id="Path_244" data-name="Path 244" d="M377.507,53.629a1.036,1.036,0,1,1-1.036-1.036,1.036,1.036,0,0,1,1.036,1.036" transform="translate(-201.972 3085.618)" fill="#fff"/>
    <circle id="Ellipse_11" data-name="Ellipse 11" cx="23.996" cy="23.996" r="23.996" transform="translate(146.344 3119.831)" fill="none" stroke="#fff" stroke-miterlimit="10" stroke-width="1"/>
  </g>
</svg>
