<svg xmlns="http://www.w3.org/2000/svg" width="48.991" height="48.991" viewBox="0 0 48.991 48.991">
  <g id="Group_1392" data-name="Group 1392" transform="translate(-252.486 -3119.192)">
    <circle id="Ellipse_9" data-name="Ellipse 9" cx="23.996" cy="23.996" r="23.996" transform="translate(252.986 3119.692)" fill="none" stroke="#fff" stroke-miterlimit="10" stroke-width="1"/>
    <rect id="Rectangle_124" data-name="Rectangle 124" width="2.89" height="9.352" transform="translate(270.306 3141.435)" fill="#fff"/>
    <path id="Path_240" data-name="Path 240" d="M648.9,52.107a1.687,1.687,0,1,1,1.687-1.687,1.688,1.688,0,0,1-1.687,1.687" transform="translate(-377.136 3088.106)" fill="#fff"/>
    <path id="Path_241" data-name="Path 241" d="M670.114,70.664h-2.9V65.738s.173-2.078-1.472-2.057c0,0-1.613-.195-1.721,1.818v5.164H661.1v-9.31h2.771v1.289a3.216,3.216,0,0,1,3.226-1.5,2.9,2.9,0,0,1,2.88,2.609,6.894,6.894,0,0,1,.14,1.678Z" transform="translate(-386.083 3080.122)" fill="#fff"/>
  </g>
</svg>
