<svg xmlns="http://www.w3.org/2000/svg" width="48.991" height="48.991" viewBox="0 0 48.991 48.991">
  <g id="Group_1394" data-name="Group 1394" transform="translate(-92.811 -3119.192)">
    <g id="Group_1393" data-name="Group 1393">
      <path id="Path_238" data-name="Path 238" d="M205.279,68.56l.489.71-.58.675-4.449,5.175h-1.1l5.057-5.885Z" transform="translate(-88.672 3075.327)" fill="#fff"/>
      <path id="Path_239" data-name="Path 239" d="M224.04,49.853l-4.8,5.579-.58.674-.489-.71.58-.675L222,50.94l.939-1.087Z" transform="translate(-100.616 3087.384)" fill="#fff"/>
    </g>
    <g id="Group_1389" data-name="Group 1389">
      <path id="Path_237" data-name="Path 237" d="M211.653,61.716l-4.326-6.284-.489-.711-3.094-4.5-.257-.373h-3.8l.927,1.347,4.114,5.978.489.71,3.306,4.8.257.372h3.8Zm-2.423.487-3.434-4.99-.489-.71-3.985-5.79h1.714l3.223,4.683.489.711,4.2,6.1Z" transform="translate(-88.699 3087.384)" fill="#fff"/>
      <circle id="Ellipse_12" data-name="Ellipse 12" cx="23.996" cy="23.996" r="23.996" transform="translate(93.311 3119.692)" fill="none" stroke="#fff" stroke-miterlimit="10" stroke-width="1"/>
    </g>
  </g>
</svg>
