<svg xmlns="http://www.w3.org/2000/svg" width="48.991" height="48.991" viewBox="0 0 48.991 48.991">
  <g id="Group_1391" data-name="Group 1391" transform="translate(-199.215 -3119.292)">
    <path id="Path_245" data-name="Path 245" d="M508.52,52.742a2.235,2.235,0,0,0-1.578-1.578,65.35,65.35,0,0,0-13.949,0,2.235,2.235,0,0,0-1.578,1.578,24.92,24.92,0,0,0,0,8.594,2.236,2.236,0,0,0,1.578,1.578,65.412,65.412,0,0,0,13.949,0,2.236,2.236,0,0,0,1.578-1.578,24.922,24.922,0,0,0,0-8.594m-10.338,6.975V54.361l4.638,2.678Z" transform="translate(-276.48 3086.78)" fill="#fff"/>
    <circle id="Ellipse_10" data-name="Ellipse 10" cx="23.996" cy="23.996" r="23.996" transform="translate(199.715 3119.792)" fill="none" stroke="#fff" stroke-miterlimit="10" stroke-width="1"/>
  </g>
</svg>
